<svg fill="#1A1A1A" xmlns="http://www.w3.org/2000/svg" xmlns:xlink="http://www.w3.org/1999/xlink" version="1.1" x="0px" y="0px" viewBox="0 0 48 48" enable-background="new 0 0 48 48" xml:space="preserve"><g><path d="M47.008,41.814L32.016,27.129c1.754-2.77,2.68-5.968,2.68-9.262c0-9.565-7.783-17.349-17.348-17.349   C7.783,0.518,0,8.301,0,17.867c0,9.565,7.783,17.346,17.348,17.346c3.654,0,7.151-1.133,10.127-3.281l14.908,14.605   c0.621,0.609,1.441,0.945,2.313,0.945c0.896,0,1.736-0.354,2.363-0.994C48.333,45.186,48.311,43.09,47.008,41.814z M17.348,30.418   c-6.92,0-12.55-5.631-12.55-12.551s5.63-12.55,12.55-12.55s12.549,5.63,12.549,12.55c0,3.259-1.242,6.347-3.5,8.696   C24.007,29.049,20.793,30.418,17.348,30.418z"></path></g></svg>